<svg width="22" height="20" viewBox="0 0 22 20" fill="none" xmlns="http://www.w3.org/2000/svg">
<path d="M16.1839 0C17.6367 0 19.0342 0.574167 20.0622 1.60442C21.0914 2.6325 21.6667 4.01917 21.6667 5.47083V14.0292C21.6667 17.0517 19.2075 19.5 16.1839 19.5H5.48167C2.45808 19.5 0 17.0517 0 14.0292V5.47083C0 2.44833 2.44725 0 5.48167 0H16.1839ZM17.4092 5.63333C17.1817 5.62142 16.965 5.69833 16.8014 5.85L11.9167 9.75C11.2883 10.2711 10.3881 10.2711 9.75 9.75L4.875 5.85C4.53808 5.60083 4.07225 5.63333 3.79167 5.92583C3.49917 6.21833 3.46667 6.68417 3.71475 7.00917L3.85667 7.15L8.78583 10.9958C9.3925 11.4725 10.1281 11.7325 10.8983 11.7325C11.6664 11.7325 12.415 11.4725 13.0206 10.9958L17.9075 7.085L17.9942 6.99833C18.2531 6.68417 18.2531 6.22917 17.9823 5.915C17.8317 5.75358 17.6247 5.655 17.4092 5.63333Z" fill="#CACBCE"/>
</svg>
